<svg class="rich-terminal" viewBox="0 0 1726 586.8" xmlns="http://www.w3.org/2000/svg">
    <!-- Generated with Rich https://www.textualize.io -->
    <style>

    @font-face {
        font-family: "Fira Code";
        src: local("FiraCode-Regular"),
                url("https://cdnjs.cloudflare.com/ajax/libs/firacode/6.2.0/woff2/FiraCode-Regular.woff2") format("woff2"),
                url("https://cdnjs.cloudflare.com/ajax/libs/firacode/6.2.0/woff/FiraCode-Regular.woff") format("woff");
        font-style: normal;
        font-weight: 400;
    }
    @font-face {
        font-family: "Fira Code";
        src: local("FiraCode-Bold"),
                url("https://cdnjs.cloudflare.com/ajax/libs/firacode/6.2.0/woff2/FiraCode-Bold.woff2") format("woff2"),
                url("https://cdnjs.cloudflare.com/ajax/libs/firacode/6.2.0/woff/FiraCode-Bold.woff") format("woff");
        font-style: bold;
        font-weight: 700;
    }

    .terminal-691880018-matrix {
        font-family: Fira Code, monospace;
        font-size: 20px;
        line-height: 24.4px;
        font-variant-east-asian: full-width;
    }

    .terminal-691880018-title {
        font-size: 18px;
        font-weight: bold;
        font-family: arial;
    }

    .terminal-691880018-r1 { fill: #c5c8c6 }
.terminal-691880018-r2 { fill: #f1f1f1 }
.terminal-691880018-r3 { fill: #a9a9a9 }
.terminal-691880018-r4 { fill: #9c9c9c }
.terminal-691880018-r5 { fill: #f1f1f1;font-weight: bold }
.terminal-691880018-r6 { fill: #111111;font-weight: bold }
.terminal-691880018-r7 { fill: #cbcbcb }
.terminal-691880018-r8 { fill: #b0b0b0;font-weight: bold }
.terminal-691880018-r9 { fill: #e0e0e0 }
    </style>

    <defs>
    <clipPath id="terminal-691880018-clip-terminal">
      <rect x="0" y="0" width="1707.0" height="535.8" />
    </clipPath>
    <clipPath id="terminal-691880018-line-0">
    <rect x="0" y="1.5" width="1708" height="24.65"/>
            </clipPath>
<clipPath id="terminal-691880018-line-1">
    <rect x="0" y="25.9" width="1708" height="24.65"/>
            </clipPath>
<clipPath id="terminal-691880018-line-2">
    <rect x="0" y="50.3" width="1708" height="24.65"/>
            </clipPath>
<clipPath id="terminal-691880018-line-3">
    <rect x="0" y="74.7" width="1708" height="24.65"/>
            </clipPath>
<clipPath id="terminal-691880018-line-4">
    <rect x="0" y="99.1" width="1708" height="24.65"/>
            </clipPath>
<clipPath id="terminal-691880018-line-5">
    <rect x="0" y="123.5" width="1708" height="24.65"/>
            </clipPath>
<clipPath id="terminal-691880018-line-6">
    <rect x="0" y="147.9" width="1708" height="24.65"/>
            </clipPath>
<clipPath id="terminal-691880018-line-7">
    <rect x="0" y="172.3" width="1708" height="24.65"/>
            </clipPath>
<clipPath id="terminal-691880018-line-8">
    <rect x="0" y="196.7" width="1708" height="24.65"/>
            </clipPath>
<clipPath id="terminal-691880018-line-9">
    <rect x="0" y="221.1" width="1708" height="24.65"/>
            </clipPath>
<clipPath id="terminal-691880018-line-10">
    <rect x="0" y="245.5" width="1708" height="24.65"/>
            </clipPath>
<clipPath id="terminal-691880018-line-11">
    <rect x="0" y="269.9" width="1708" height="24.65"/>
            </clipPath>
<clipPath id="terminal-691880018-line-12">
    <rect x="0" y="294.3" width="1708" height="24.65"/>
            </clipPath>
<clipPath id="terminal-691880018-line-13">
    <rect x="0" y="318.7" width="1708" height="24.65"/>
            </clipPath>
<clipPath id="terminal-691880018-line-14">
    <rect x="0" y="343.1" width="1708" height="24.65"/>
            </clipPath>
<clipPath id="terminal-691880018-line-15">
    <rect x="0" y="367.5" width="1708" height="24.65"/>
            </clipPath>
<clipPath id="terminal-691880018-line-16">
    <rect x="0" y="391.9" width="1708" height="24.65"/>
            </clipPath>
<clipPath id="terminal-691880018-line-17">
    <rect x="0" y="416.3" width="1708" height="24.65"/>
            </clipPath>
<clipPath id="terminal-691880018-line-18">
    <rect x="0" y="440.7" width="1708" height="24.65"/>
            </clipPath>
<clipPath id="terminal-691880018-line-19">
    <rect x="0" y="465.1" width="1708" height="24.65"/>
            </clipPath>
<clipPath id="terminal-691880018-line-20">
    <rect x="0" y="489.5" width="1708" height="24.65"/>
            </clipPath>
    </defs>

    <rect fill="#292929" stroke="rgba(255,255,255,0.35)" stroke-width="1" x="1" y="1" width="1724" height="584.8" rx="8"/><text class="terminal-691880018-title" fill="#c5c8c6" text-anchor="middle" x="862" y="27">SetTag</text>
            <g transform="translate(26,22)">
            <circle cx="0" cy="0" r="7" fill="#ff5f57"/>
            <circle cx="22" cy="0" r="7" fill="#febc2e"/>
            <circle cx="44" cy="0" r="7" fill="#28c840"/>
            </g>
        
    <g transform="translate(9, 41)" clip-path="url(#terminal-691880018-clip-terminal)">
    <rect fill="#1e1e1e" x="0" y="1.5" width="12.2" height="24.65" shape-rendering="crispEdges"/><rect fill="#1e1e1e" x="12.2" y="1.5" width="12.2" height="24.65" shape-rendering="crispEdges"/><rect fill="#1e1e1e" x="24.4" y="1.5" width="61" height="24.65" shape-rendering="crispEdges"/><rect fill="#1e1e1e" x="85.4" y="1.5" width="12.2" height="24.65" shape-rendering="crispEdges"/><rect fill="#1e1e1e" x="97.6" y="1.5" width="549" height="24.65" shape-rendering="crispEdges"/><rect fill="#1e1e1e" x="646.6" y="1.5" width="73.2" height="24.65" shape-rendering="crispEdges"/><rect fill="#1e1e1e" x="719.8" y="1.5" width="36.6" height="24.65" shape-rendering="crispEdges"/><rect fill="#1e1e1e" x="756.4" y="1.5" width="268.4" height="24.65" shape-rendering="crispEdges"/><rect fill="#1e1e1e" x="1024.8" y="1.5" width="561.2" height="24.65" shape-rendering="crispEdges"/><rect fill="#1e1e1e" x="1586" y="1.5" width="12.2" height="24.65" shape-rendering="crispEdges"/><rect fill="#1e1e1e" x="1598.2" y="1.5" width="0" height="24.65" shape-rendering="crispEdges"/><rect fill="#1e1e1e" x="1598.2" y="1.5" width="97.6" height="24.65" shape-rendering="crispEdges"/><rect fill="#1e1e1e" x="1695.8" y="1.5" width="12.2" height="24.65" shape-rendering="crispEdges"/><rect fill="#131313" x="0" y="25.9" width="1708" height="24.65" shape-rendering="crispEdges"/><rect fill="#131313" x="0" y="50.3" width="24.4" height="24.65" shape-rendering="crispEdges"/><rect fill="#131313" x="24.4" y="50.3" width="1512.8" height="24.65" shape-rendering="crispEdges"/><rect fill="#131313" x="1537.2" y="50.3" width="146.4" height="24.65" shape-rendering="crispEdges"/><rect fill="#131313" x="1683.6" y="50.3" width="24.4" height="24.65" shape-rendering="crispEdges"/><rect fill="#131313" x="0" y="74.7" width="24.4" height="24.65" shape-rendering="crispEdges"/><rect fill="#131313" x="24.4" y="74.7" width="1659.2" height="24.65" shape-rendering="crispEdges"/><rect fill="#131313" x="1683.6" y="74.7" width="24.4" height="24.65" shape-rendering="crispEdges"/><rect fill="#0e0e0e" x="0" y="99.1" width="12.2" height="24.65" shape-rendering="crispEdges"/><rect fill="#0e0e0e" x="12.2" y="99.1" width="12.2" height="24.65" shape-rendering="crispEdges"/><rect fill="#0e0e0e" x="24.4" y="99.1" width="475.8" height="24.65" shape-rendering="crispEdges"/><rect fill="#0e0e0e" x="500.2" y="99.1" width="1183.4" height="24.65" shape-rendering="crispEdges"/><rect fill="#0e0e0e" x="1683.6" y="99.1" width="12.2" height="24.65" shape-rendering="crispEdges"/><rect fill="#0e0e0e" x="1695.8" y="99.1" width="12.2" height="24.65" shape-rendering="crispEdges"/><rect fill="#0e0e0e" x="0" y="123.5" width="12.2" height="24.65" shape-rendering="crispEdges"/><rect fill="#0e0e0e" x="12.2" y="123.5" width="12.2" height="24.65" shape-rendering="crispEdges"/><rect fill="#0e0e0e" x="24.4" y="123.5" width="1659.2" height="24.65" shape-rendering="crispEdges"/><rect fill="#0e0e0e" x="1683.6" y="123.5" width="12.2" height="24.65" shape-rendering="crispEdges"/><rect fill="#0e0e0e" x="1695.8" y="123.5" width="12.2" height="24.65" shape-rendering="crispEdges"/><rect fill="#0e0e0e" x="0" y="147.9" width="12.2" height="24.65" shape-rendering="crispEdges"/><rect fill="#272727" x="12.2" y="147.9" width="36.6" height="24.65" shape-rendering="crispEdges"/><rect fill="#272727" x="48.8" y="147.9" width="573.4" height="24.65" shape-rendering="crispEdges"/><rect fill="#272727" x="622.2" y="147.9" width="244" height="24.65" shape-rendering="crispEdges"/><rect fill="#272727" x="866.2" y="147.9" width="317.2" height="24.65" shape-rendering="crispEdges"/><rect fill="#272727" x="1183.4" y="147.9" width="268.4" height="24.65" shape-rendering="crispEdges"/><rect fill="#272727" x="1451.8" y="147.9" width="219.6" height="24.65" shape-rendering="crispEdges"/><rect fill="#272727" x="1671.4" y="147.9" width="24.4" height="24.65" shape-rendering="crispEdges"/><rect fill="#0e0e0e" x="1695.8" y="147.9" width="12.2" height="24.65" shape-rendering="crispEdges"/><rect fill="#0e0e0e" x="0" y="172.3" width="12.2" height="24.65" shape-rendering="crispEdges"/><rect fill="#888888" x="12.2" y="172.3" width="36.6" height="24.65" shape-rendering="crispEdges"/><rect fill="#888888" x="48.8" y="172.3" width="573.4" height="24.65" shape-rendering="crispEdges"/><rect fill="#888888" x="622.2" y="172.3" width="244" height="24.65" shape-rendering="crispEdges"/><rect fill="#888888" x="866.2" y="172.3" width="317.2" height="24.65" shape-rendering="crispEdges"/><rect fill="#888888" x="1183.4" y="172.3" width="268.4" height="24.65" shape-rendering="crispEdges"/><rect fill="#888888" x="1451.8" y="172.3" width="219.6" height="24.65" shape-rendering="crispEdges"/><rect fill="#888888" x="1671.4" y="172.3" width="24.4" height="24.65" shape-rendering="crispEdges"/><rect fill="#0e0e0e" x="1695.8" y="172.3" width="12.2" height="24.65" shape-rendering="crispEdges"/><rect fill="#0e0e0e" x="0" y="196.7" width="12.2" height="24.65" shape-rendering="crispEdges"/><rect fill="#202020" x="12.2" y="196.7" width="36.6" height="24.65" shape-rendering="crispEdges"/><rect fill="#202020" x="48.8" y="196.7" width="573.4" height="24.65" shape-rendering="crispEdges"/><rect fill="#202020" x="622.2" y="196.7" width="244" height="24.65" shape-rendering="crispEdges"/><rect fill="#202020" x="866.2" y="196.7" width="317.2" height="24.65" shape-rendering="crispEdges"/><rect fill="#202020" x="1183.4" y="196.7" width="268.4" height="24.65" shape-rendering="crispEdges"/><rect fill="#202020" x="1451.8" y="196.7" width="219.6" height="24.65" shape-rendering="crispEdges"/><rect fill="#202020" x="1671.4" y="196.7" width="24.4" height="24.65" shape-rendering="crispEdges"/><rect fill="#0e0e0e" x="1695.8" y="196.7" width="12.2" height="24.65" shape-rendering="crispEdges"/><rect fill="#0e0e0e" x="0" y="221.1" width="12.2" height="24.65" shape-rendering="crispEdges"/><rect fill="#181818" x="12.2" y="221.1" width="36.6" height="24.65" shape-rendering="crispEdges"/><rect fill="#181818" x="48.8" y="221.1" width="573.4" height="24.65" shape-rendering="crispEdges"/><rect fill="#181818" x="622.2" y="221.1" width="244" height="24.65" shape-rendering="crispEdges"/><rect fill="#181818" x="866.2" y="221.1" width="317.2" height="24.65" shape-rendering="crispEdges"/><rect fill="#181818" x="1183.4" y="221.1" width="268.4" height="24.65" shape-rendering="crispEdges"/><rect fill="#181818" x="1451.8" y="221.1" width="219.6" height="24.65" shape-rendering="crispEdges"/><rect fill="#181818" x="1671.4" y="221.1" width="24.4" height="24.65" shape-rendering="crispEdges"/><rect fill="#0e0e0e" x="1695.8" y="221.1" width="12.2" height="24.65" shape-rendering="crispEdges"/><rect fill="#0e0e0e" x="0" y="245.5" width="12.2" height="24.65" shape-rendering="crispEdges"/><rect fill="#202020" x="12.2" y="245.5" width="36.6" height="24.65" shape-rendering="crispEdges"/><rect fill="#202020" x="48.8" y="245.5" width="573.4" height="24.65" shape-rendering="crispEdges"/><rect fill="#202020" x="622.2" y="245.5" width="244" height="24.65" shape-rendering="crispEdges"/><rect fill="#202020" x="866.2" y="245.5" width="317.2" height="24.65" shape-rendering="crispEdges"/><rect fill="#202020" x="1183.4" y="245.5" width="268.4" height="24.65" shape-rendering="crispEdges"/><rect fill="#202020" x="1451.8" y="245.5" width="219.6" height="24.65" shape-rendering="crispEdges"/><rect fill="#202020" x="1671.4" y="245.5" width="24.4" height="24.65" shape-rendering="crispEdges"/><rect fill="#0e0e0e" x="1695.8" y="245.5" width="12.2" height="24.65" shape-rendering="crispEdges"/><rect fill="#0e0e0e" x="0" y="269.9" width="12.2" height="24.65" shape-rendering="crispEdges"/><rect fill="#202020" x="12.2" y="269.9" width="1683.6" height="24.65" shape-rendering="crispEdges"/><rect fill="#0e0e0e" x="1695.8" y="269.9" width="12.2" height="24.65" shape-rendering="crispEdges"/><rect fill="#0e0e0e" x="0" y="294.3" width="12.2" height="24.65" shape-rendering="crispEdges"/><rect fill="#202020" x="12.2" y="294.3" width="1683.6" height="24.65" shape-rendering="crispEdges"/><rect fill="#0e0e0e" x="1695.8" y="294.3" width="12.2" height="24.65" shape-rendering="crispEdges"/><rect fill="#0e0e0e" x="0" y="318.7" width="12.2" height="24.65" shape-rendering="crispEdges"/><rect fill="#202020" x="12.2" y="318.7" width="1683.6" height="24.65" shape-rendering="crispEdges"/><rect fill="#0e0e0e" x="1695.8" y="318.7" width="12.2" height="24.65" shape-rendering="crispEdges"/><rect fill="#0e0e0e" x="0" y="343.1" width="12.2" height="24.65" shape-rendering="crispEdges"/><rect fill="#202020" x="12.2" y="343.1" width="1683.6" height="24.65" shape-rendering="crispEdges"/><rect fill="#0e0e0e" x="1695.8" y="343.1" width="12.2" height="24.65" shape-rendering="crispEdges"/><rect fill="#0e0e0e" x="0" y="367.5" width="12.2" height="24.65" shape-rendering="crispEdges"/><rect fill="#202020" x="12.2" y="367.5" width="1683.6" height="24.65" shape-rendering="crispEdges"/><rect fill="#0e0e0e" x="1695.8" y="367.5" width="12.2" height="24.65" shape-rendering="crispEdges"/><rect fill="#0e0e0e" x="0" y="391.9" width="12.2" height="24.65" shape-rendering="crispEdges"/><rect fill="#202020" x="12.2" y="391.9" width="1683.6" height="24.65" shape-rendering="crispEdges"/><rect fill="#0e0e0e" x="1695.8" y="391.9" width="12.2" height="24.65" shape-rendering="crispEdges"/><rect fill="#0e0e0e" x="0" y="416.3" width="1708" height="24.65" shape-rendering="crispEdges"/><rect fill="#1e1e1e" x="0" y="440.7" width="1708" height="24.65" shape-rendering="crispEdges"/><rect fill="#1e1e1e" x="0" y="465.1" width="24.4" height="24.65" shape-rendering="crispEdges"/><rect fill="#1e1e1e" x="24.4" y="465.1" width="1659.2" height="24.65" shape-rendering="crispEdges"/><rect fill="#1e1e1e" x="1683.6" y="465.1" width="24.4" height="24.65" shape-rendering="crispEdges"/><rect fill="#1e1e1e" x="0" y="489.5" width="1708" height="24.65" shape-rendering="crispEdges"/><rect fill="#1e1e1e" x="0" y="513.9" width="61" height="24.65" shape-rendering="crispEdges"/><rect fill="#1e1e1e" x="61" y="513.9" width="85.4" height="24.65" shape-rendering="crispEdges"/><rect fill="#1e1e1e" x="146.4" y="513.9" width="12.2" height="24.65" shape-rendering="crispEdges"/><rect fill="#1e1e1e" x="158.6" y="513.9" width="12.2" height="24.65" shape-rendering="crispEdges"/><rect fill="#1e1e1e" x="170.8" y="513.9" width="109.8" height="24.65" shape-rendering="crispEdges"/><rect fill="#1e1e1e" x="280.6" y="513.9" width="12.2" height="24.65" shape-rendering="crispEdges"/><rect fill="#1e1e1e" x="292.8" y="513.9" width="12.2" height="24.65" shape-rendering="crispEdges"/><rect fill="#1e1e1e" x="305" y="513.9" width="97.6" height="24.65" shape-rendering="crispEdges"/><rect fill="#1e1e1e" x="402.6" y="513.9" width="12.2" height="24.65" shape-rendering="crispEdges"/><rect fill="#1e1e1e" x="414.8" y="513.9" width="12.2" height="24.65" shape-rendering="crispEdges"/><rect fill="#1e1e1e" x="427" y="513.9" width="97.6" height="24.65" shape-rendering="crispEdges"/><rect fill="#1e1e1e" x="524.6" y="513.9" width="12.2" height="24.65" shape-rendering="crispEdges"/><rect fill="#1e1e1e" x="536.8" y="513.9" width="12.2" height="24.65" shape-rendering="crispEdges"/><rect fill="#1e1e1e" x="549" y="513.9" width="73.2" height="24.65" shape-rendering="crispEdges"/><rect fill="#1e1e1e" x="622.2" y="513.9" width="12.2" height="24.65" shape-rendering="crispEdges"/><rect fill="#1e1e1e" x="634.4" y="513.9" width="12.2" height="24.65" shape-rendering="crispEdges"/><rect fill="#1e1e1e" x="646.6" y="513.9" width="122" height="24.65" shape-rendering="crispEdges"/><rect fill="#1e1e1e" x="768.6" y="513.9" width="12.2" height="24.65" shape-rendering="crispEdges"/><rect fill="#1e1e1e" x="780.8" y="513.9" width="12.2" height="24.65" shape-rendering="crispEdges"/><rect fill="#1e1e1e" x="793" y="513.9" width="73.2" height="24.65" shape-rendering="crispEdges"/><rect fill="#1e1e1e" x="866.2" y="513.9" width="12.2" height="24.65" shape-rendering="crispEdges"/><rect fill="#1e1e1e" x="878.4" y="513.9" width="12.2" height="24.65" shape-rendering="crispEdges"/><rect fill="#1e1e1e" x="890.6" y="513.9" width="61" height="24.65" shape-rendering="crispEdges"/><rect fill="#1e1e1e" x="951.6" y="513.9" width="12.2" height="24.65" shape-rendering="crispEdges"/><rect fill="#1e1e1e" x="963.8" y="513.9" width="12.2" height="24.65" shape-rendering="crispEdges"/><rect fill="#1e1e1e" x="976" y="513.9" width="61" height="24.65" shape-rendering="crispEdges"/><rect fill="#1e1e1e" x="1037" y="513.9" width="671" height="24.65" shape-rendering="crispEdges"/>
    <g class="terminal-691880018-matrix">
    <text class="terminal-691880018-r2" x="12.2" y="20" textLength="12.2" clip-path="url(#terminal-691880018-line-0)">⭘</text><text class="terminal-691880018-r2" x="646.6" y="20" textLength="73.2" clip-path="url(#terminal-691880018-line-0)">SetTag</text><text class="terminal-691880018-r3" x="719.8" y="20" textLength="36.6" clip-path="url(#terminal-691880018-line-0)">&#160;—&#160;</text><text class="terminal-691880018-r3" x="756.4" y="20" textLength="268.4" clip-path="url(#terminal-691880018-line-0)">Review&#160;analyzed&#160;tracks</text><text class="terminal-691880018-r1" x="1708" y="20" textLength="12.2" clip-path="url(#terminal-691880018-line-0)">
</text><text class="terminal-691880018-r1" x="1708" y="44.4" textLength="12.2" clip-path="url(#terminal-691880018-line-1)">
</text><text class="terminal-691880018-r4" x="24.4" y="68.8" textLength="1512.8" clip-path="url(#terminal-691880018-line-2)">/Music/demo-crate&#160;&#160;·&#160;&#160;4&#160;reviewed&#160;&#160;·&#160;&#160;0&#160;analysis&#160;errors&#160;&#160;·&#160;&#160;Tasks:&#160;Genre,&#160;Mood/theme,&#160;Instrument&#160;&#160;·&#160;&#160;B&#160;returns&#160;to&#160;the&#160;library</text><text class="terminal-691880018-r1" x="1708" y="68.8" textLength="12.2" clip-path="url(#terminal-691880018-line-2)">
</text><text class="terminal-691880018-r1" x="1708" y="93.2" textLength="12.2" clip-path="url(#terminal-691880018-line-3)">
</text><text class="terminal-691880018-r5" x="24.4" y="117.6" textLength="475.8" clip-path="url(#terminal-691880018-line-4)">Review&#160;·&#160;checked&#160;tracks&#160;will&#160;be&#160;written</text><text class="terminal-691880018-r1" x="1708" y="117.6" textLength="12.2" clip-path="url(#terminal-691880018-line-4)">
</text><text class="terminal-691880018-r1" x="1708" y="142" textLength="12.2" clip-path="url(#terminal-691880018-line-5)">
</text><text class="terminal-691880018-r5" x="48.8" y="166.4" textLength="573.4" clip-path="url(#terminal-691880018-line-6)">&#160;Track&#160;&#160;&#160;&#160;&#160;&#160;&#160;&#160;&#160;&#160;&#160;&#160;&#160;&#160;&#160;&#160;&#160;&#160;&#160;&#160;&#160;&#160;&#160;&#160;&#160;&#160;&#160;&#160;&#160;&#160;&#160;&#160;&#160;&#160;&#160;&#160;&#160;&#160;&#160;&#160;&#160;</text><text class="terminal-691880018-r5" x="622.2" y="166.4" textLength="244" clip-path="url(#terminal-691880018-line-6)">&#160;File&#160;genre&#160;&#160;&#160;&#160;&#160;&#160;&#160;&#160;&#160;</text><text class="terminal-691880018-r5" x="866.2" y="166.4" textLength="317.2" clip-path="url(#terminal-691880018-line-6)">&#160;Analysis&#160;&#160;&#160;&#160;&#160;&#160;&#160;&#160;&#160;&#160;&#160;&#160;&#160;&#160;&#160;&#160;&#160;</text><text class="terminal-691880018-r5" x="1183.4" y="166.4" textLength="268.4" clip-path="url(#terminal-691880018-line-6)">&#160;Suggested&#160;&#160;&#160;&#160;&#160;&#160;&#160;&#160;&#160;&#160;&#160;&#160;</text><text class="terminal-691880018-r5" x="1451.8" y="166.4" textLength="219.6" clip-path="url(#terminal-691880018-line-6)">&#160;Write&#160;plan&#160;&#160;&#160;&#160;&#160;&#160;&#160;</text><text class="terminal-691880018-r1" x="1708" y="166.4" textLength="12.2" clip-path="url(#terminal-691880018-line-6)">
</text><text class="terminal-691880018-r6" x="12.2" y="190.8" textLength="36.6" clip-path="url(#terminal-691880018-line-7)">&#160;✓&#160;</text><text class="terminal-691880018-r6" x="48.8" y="190.8" textLength="573.4" clip-path="url(#terminal-691880018-line-7)">&#160;Cassia&#160;—&#160;Palm&#160;Reader.wav&#160;&#160;&#160;&#160;&#160;&#160;&#160;&#160;&#160;&#160;&#160;&#160;&#160;&#160;&#160;&#160;&#160;&#160;&#160;&#160;&#160;&#160;</text><text class="terminal-691880018-r6" x="622.2" y="190.8" textLength="244" clip-path="url(#terminal-691880018-line-7)">&#160;Breakbeat&#160;&#160;&#160;&#160;&#160;&#160;&#160;&#160;&#160;&#160;</text><text class="terminal-691880018-r6" x="866.2" y="190.8" textLength="317.2" clip-path="url(#terminal-691880018-line-7)">&#160;New&#160;·&#160;2026-07-29&#160;&#160;&#160;&#160;&#160;&#160;&#160;&#160;&#160;</text><text class="terminal-691880018-r6" x="1183.4" y="190.8" textLength="268.4" clip-path="url(#terminal-691880018-line-7)">&#160;Breaks&#160;&#160;&#160;&#160;&#160;&#160;&#160;&#160;&#160;&#160;&#160;&#160;&#160;&#160;&#160;</text><text class="terminal-691880018-r6" x="1451.8" y="190.8" textLength="219.6" clip-path="url(#terminal-691880018-line-7)">&#160;Evidence&#160;&#160;&#160;&#160;&#160;&#160;&#160;&#160;&#160;</text><text class="terminal-691880018-r1" x="1708" y="190.8" textLength="12.2" clip-path="url(#terminal-691880018-line-7)">
</text><text class="terminal-691880018-r7" x="12.2" y="215.2" textLength="36.6" clip-path="url(#terminal-691880018-line-8)">&#160;✓&#160;</text><text class="terminal-691880018-r7" x="48.8" y="215.2" textLength="573.4" clip-path="url(#terminal-691880018-line-8)">&#160;Marine&#160;Layer&#160;—&#160;Sundial.wav&#160;&#160;&#160;&#160;&#160;&#160;&#160;&#160;&#160;&#160;&#160;&#160;&#160;&#160;&#160;&#160;&#160;&#160;&#160;&#160;</text><text class="terminal-691880018-r7" x="622.2" y="215.2" textLength="244" clip-path="url(#terminal-691880018-line-8)">&#160;Afro&#160;House&#160;&#160;&#160;&#160;&#160;&#160;&#160;&#160;&#160;</text><text class="terminal-691880018-r7" x="866.2" y="215.2" textLength="317.2" clip-path="url(#terminal-691880018-line-8)">&#160;New&#160;·&#160;2026-07-29&#160;&#160;&#160;&#160;&#160;&#160;&#160;&#160;&#160;</text><text class="terminal-691880018-r7" x="1183.4" y="215.2" textLength="268.4" clip-path="url(#terminal-691880018-line-8)">&#160;Deep&#160;House&#160;&#160;&#160;&#160;&#160;&#160;&#160;&#160;&#160;&#160;&#160;</text><text class="terminal-691880018-r7" x="1451.8" y="215.2" textLength="219.6" clip-path="url(#terminal-691880018-line-8)">&#160;Evidence&#160;&#160;&#160;&#160;&#160;&#160;&#160;&#160;&#160;</text><text class="terminal-691880018-r1" x="1708" y="215.2" textLength="12.2" clip-path="url(#terminal-691880018-line-8)">
</text><text class="terminal-691880018-r7" x="12.2" y="239.6" textLength="36.6" clip-path="url(#terminal-691880018-line-9)">&#160;✓&#160;</text><text class="terminal-691880018-r7" x="48.8" y="239.6" textLength="573.4" clip-path="url(#terminal-691880018-line-9)">&#160;Night&#160;Vent&#160;—&#160;Kestrel.wav&#160;&#160;&#160;&#160;&#160;&#160;&#160;&#160;&#160;&#160;&#160;&#160;&#160;&#160;&#160;&#160;&#160;&#160;&#160;&#160;&#160;&#160;</text><text class="terminal-691880018-r7" x="622.2" y="239.6" textLength="244" clip-path="url(#terminal-691880018-line-9)">&#160;None&#160;→&#160;Techno&#160;&#160;&#160;&#160;&#160;&#160;</text><text class="terminal-691880018-r7" x="866.2" y="239.6" textLength="317.2" clip-path="url(#terminal-691880018-line-9)">&#160;New&#160;·&#160;2026-07-29&#160;&#160;&#160;&#160;&#160;&#160;&#160;&#160;&#160;</text><text class="terminal-691880018-r7" x="1183.4" y="239.6" textLength="268.4" clip-path="url(#terminal-691880018-line-9)">&#160;Techno&#160;&#160;&#160;&#160;&#160;&#160;&#160;&#160;&#160;&#160;&#160;&#160;&#160;&#160;&#160;</text><text class="terminal-691880018-r7" x="1451.8" y="239.6" textLength="219.6" clip-path="url(#terminal-691880018-line-9)">&#160;Evidence&#160;+&#160;genre&#160;</text><text class="terminal-691880018-r1" x="1708" y="239.6" textLength="12.2" clip-path="url(#terminal-691880018-line-9)">
</text><text class="terminal-691880018-r7" x="12.2" y="264" textLength="36.6" clip-path="url(#terminal-691880018-line-10)">&#160;✓&#160;</text><text class="terminal-691880018-r7" x="48.8" y="264" textLength="573.4" clip-path="url(#terminal-691880018-line-10)">&#160;Slow&#160;Tide&#160;—&#160;Ferrous.wav&#160;&#160;&#160;&#160;&#160;&#160;&#160;&#160;&#160;&#160;&#160;&#160;&#160;&#160;&#160;&#160;&#160;&#160;&#160;&#160;&#160;&#160;&#160;</text><text class="terminal-691880018-r7" x="622.2" y="264" textLength="244" clip-path="url(#terminal-691880018-line-10)">&#160;Tech&#160;House&#160;&#160;&#160;&#160;&#160;&#160;&#160;&#160;&#160;</text><text class="terminal-691880018-r7" x="866.2" y="264" textLength="317.2" clip-path="url(#terminal-691880018-line-10)">&#160;New&#160;·&#160;2026-07-29&#160;&#160;&#160;&#160;&#160;&#160;&#160;&#160;&#160;</text><text class="terminal-691880018-r7" x="1183.4" y="264" textLength="268.4" clip-path="url(#terminal-691880018-line-10)">&#160;Tech&#160;House&#160;&#160;&#160;&#160;&#160;&#160;&#160;&#160;&#160;&#160;&#160;</text><text class="terminal-691880018-r7" x="1451.8" y="264" textLength="219.6" clip-path="url(#terminal-691880018-line-10)">&#160;Evidence&#160;&#160;&#160;&#160;&#160;&#160;&#160;&#160;&#160;</text><text class="terminal-691880018-r1" x="1708" y="264" textLength="12.2" clip-path="url(#terminal-691880018-line-10)">
</text><text class="terminal-691880018-r1" x="1708" y="288.4" textLength="12.2" clip-path="url(#terminal-691880018-line-11)">
</text><text class="terminal-691880018-r1" x="1708" y="312.8" textLength="12.2" clip-path="url(#terminal-691880018-line-12)">
</text><text class="terminal-691880018-r1" x="1708" y="337.2" textLength="12.2" clip-path="url(#terminal-691880018-line-13)">
</text><text class="terminal-691880018-r1" x="1708" y="361.6" textLength="12.2" clip-path="url(#terminal-691880018-line-14)">
</text><text class="terminal-691880018-r1" x="1708" y="386" textLength="12.2" clip-path="url(#terminal-691880018-line-15)">
</text><text class="terminal-691880018-r1" x="1708" y="410.4" textLength="12.2" clip-path="url(#terminal-691880018-line-16)">
</text><text class="terminal-691880018-r1" x="1708" y="434.8" textLength="12.2" clip-path="url(#terminal-691880018-line-17)">
</text><text class="terminal-691880018-r1" x="1708" y="459.2" textLength="12.2" clip-path="url(#terminal-691880018-line-18)">
</text><text class="terminal-691880018-r7" x="24.4" y="483.6" textLength="1659.2" clip-path="url(#terminal-691880018-line-19)">Analysis&#160;complete&#160;&#160;·&#160;&#160;4&#160;analyzed&#160;&#160;·&#160;&#160;0&#160;failed&#160;&#160;·&#160;&#160;4&#160;will&#160;be&#160;written&#160;&#160;·&#160;&#160;1&#160;standard&#160;genre&#160;edits&#160;&#160;·&#160;&#160;Space&#160;toggle&#160;&#160;·&#160;&#160;Enter/W&#160;review&#160;write</text><text class="terminal-691880018-r1" x="1708" y="483.6" textLength="12.2" clip-path="url(#terminal-691880018-line-19)">
</text><text class="terminal-691880018-r1" x="1708" y="508" textLength="12.2" clip-path="url(#terminal-691880018-line-20)">
</text><text class="terminal-691880018-r8" x="0" y="532.4" textLength="61" clip-path="url(#terminal-691880018-line-21)">space</text><text class="terminal-691880018-r9" x="61" y="532.4" textLength="85.4" clip-path="url(#terminal-691880018-line-21)">&#160;Toggle</text><text class="terminal-691880018-r8" x="158.6" y="532.4" textLength="12.2" clip-path="url(#terminal-691880018-line-21)">a</text><text class="terminal-691880018-r9" x="170.8" y="532.4" textLength="109.8" clip-path="url(#terminal-691880018-line-21)">&#160;All/None</text><text class="terminal-691880018-r8" x="292.8" y="532.4" textLength="12.2" clip-path="url(#terminal-691880018-line-21)">i</text><text class="terminal-691880018-r9" x="305" y="532.4" textLength="97.6" clip-path="url(#terminal-691880018-line-21)">&#160;Details</text><text class="terminal-691880018-r8" x="414.8" y="532.4" textLength="12.2" clip-path="url(#terminal-691880018-line-21)">b</text><text class="terminal-691880018-r9" x="427" y="532.4" textLength="97.6" clip-path="url(#terminal-691880018-line-21)">&#160;Library</text><text class="terminal-691880018-r8" x="536.8" y="532.4" textLength="12.2" clip-path="url(#terminal-691880018-line-21)">e</text><text class="terminal-691880018-r9" x="549" y="532.4" textLength="73.2" clip-path="url(#terminal-691880018-line-21)">&#160;Genre</text><text class="terminal-691880018-r8" x="634.4" y="532.4" textLength="12.2" clip-path="url(#terminal-691880018-line-21)">s</text><text class="terminal-691880018-r9" x="646.6" y="532.4" textLength="122" clip-path="url(#terminal-691880018-line-21)">&#160;Save&#160;plan</text><text class="terminal-691880018-r8" x="780.8" y="532.4" textLength="12.2" clip-path="url(#terminal-691880018-line-21)">w</text><text class="terminal-691880018-r9" x="793" y="532.4" textLength="73.2" clip-path="url(#terminal-691880018-line-21)">&#160;Write</text><text class="terminal-691880018-r8" x="878.4" y="532.4" textLength="12.2" clip-path="url(#terminal-691880018-line-21)">u</text><text class="terminal-691880018-r9" x="890.6" y="532.4" textLength="61" clip-path="url(#terminal-691880018-line-21)">&#160;Undo</text><text class="terminal-691880018-r8" x="963.8" y="532.4" textLength="12.2" clip-path="url(#terminal-691880018-line-21)">q</text><text class="terminal-691880018-r9" x="976" y="532.4" textLength="61" clip-path="url(#terminal-691880018-line-21)">&#160;Quit</text>
    </g>
    </g>
</svg>
